<svg width="14" height="14" viewBox="0 0 14 14" fill="none" xmlns="http://www.w3.org/2000/svg">
<path d="M1.55743 10.0636L2.22223 11.8928C2.38743 12.3485 2.89044 12.5804 3.34617 12.4157C4.49119 12.0022 6.64907 11.0035 8.82631 8.82629C11.0036 6.64905 12.0022 4.49174 12.4158 3.34615C12.5804 2.89042 12.3491 2.38741 11.8934 2.22221L10.0636 1.55741C9.88247 1.4919 9.68024 1.55229 9.56459 1.70666L8.00087 3.79105C7.87783 3.95512 7.88523 4.18241 8.01853 4.33793L9.1026 5.60315C9.1026 5.60315 8.64972 6.52885 7.58901 7.58899C6.5283 8.6497 5.6026 9.10258 5.6026 9.10258L4.33795 8.01851C4.18243 7.88521 3.95457 7.87781 3.79108 8.00085L1.70612 9.56457C1.55231 9.67965 1.49192 9.88245 1.55743 10.0636Z" fill="#FF1C9D"/>
</svg>
